<svg xmlns="http://www.w3.org/2000/svg" width="32" height="32"><path d="M8.828 3.862h14.345a3.31 3.31 0 0 1 3.31 3.31v14.345a3.31 3.31 0 0 1-3.31 3.31H8.828a3.31 3.31 0 0 1-3.31-3.31V7.172a3.31 3.31 0 0 1 3.31-3.31z"/><path d="M8.828 3.862h14.345a3.31 3.31 0 0 1 3.31 3.31v14.345a3.31 3.31 0 0 1-3.31 3.31H8.828a3.31 3.31 0 0 1-3.31-3.31V7.172a3.31 3.31 0 0 1 3.31-3.31zm12.965 9.134c.708 0 1.287-.607 1.287-1.349s-.579-1.349-1.287-1.349-1.287.607-1.287 1.349c0 .121.013.236.045.344l-2.285 2.401c-.103-.034-.219-.047-.335-.047s-.232.013-.335.047l-1.641-1.72c.032-.108.045-.229.045-.351 0-.742-.579-1.349-1.287-1.349s-1.287.607-1.287 1.349c0 .121.013.243.045.351l-2.935 3.068a1.037 1.037 0 0 0-.328-.047c-.708 0-1.287.607-1.287 1.349s.579 1.349 1.287 1.349 1.287-.607 1.287-1.349c0-.121-.013-.236-.045-.344l2.929-3.075c.103.034.219.047.335.047s.232-.014.335-.047l1.641 1.72a1.251 1.251 0 0 0-.045.351c0 .742.579 1.349 1.287 1.349s1.287-.607 1.287-1.349c0-.121-.013-.243-.045-.351l2.292-2.394c.103.034.212.047.328.047z"/></svg>