<svg xmlns="http://www.w3.org/2000/svg" width="32" height="32"><path d="M6.545 2.182a4.364 4.364 0 0 0-4.364 4.364v18.909a4.364 4.364 0 0 0 4.364 4.364h18.909a4.364 4.364 0 0 0 4.364-4.364V6.546a4.364 4.364 0 0 0-4.364-4.364H6.545zm7.093 11.344c0 .86.661 1.412 2.715 1.946s4.253 1.412 4.253 3.982c0 1.855-1.403 2.878-3.167 3.212v1.946h-2.715v-1.964c-1.737-.371-3.222-1.484-3.33-3.466h1.991c.1 1.068.833 1.9 2.697 1.9 2 0 2.443-.995 2.443-1.62 0-.842-.452-1.638-2.715-2.181-2.525-.606-4.253-1.647-4.253-3.737 0-1.747 1.412-2.887 3.167-3.267V8.322h2.715v1.982c1.891.462 2.841 1.891 2.905 3.448h-2c-.054-1.131-.651-1.9-2.262-1.9-1.529 0-2.443.688-2.443 1.674z"/></svg>