<svg xmlns="http://www.w3.org/2000/svg" width="32" height="32"><path d="M20.051 23.237h2.499v4.997a3.752 3.752 0 0 1-3.748 3.748H3.748A3.752 3.752 0 0 1 0 28.234V3.748A3.752 3.752 0 0 1 3.748 0h15.054a3.752 3.752 0 0 1 3.748 3.748v4.997h-2.499V3.748a1.25 1.25 0 0 0-1.249-1.249H3.748a1.25 1.25 0 0 0-1.249 1.249v24.486a1.25 1.25 0 0 0 1.249 1.249h15.054a1.25 1.25 0 0 0 1.249-1.249v-4.997zm6.06-13.135-1.767 1.767 2.873 2.874H11.056v2.499h16.161l-2.873 2.873 1.767 1.767L32 15.993l-5.889-5.89z"/></svg>